<?xml version="1.0" encoding="iso-8859-1"?>
<!-- Uploaded to: SVG Repo, www.svgrepo.com, Generator: SVG Repo Mixer Tools -->
<svg height="800px" width="800px" version="1.1" id="Capa_1" xmlns="http://www.w3.org/2000/svg" xmlns:xlink="http://www.w3.org/1999/xlink" 
	 viewBox="0 0 292.165 292.165" xml:space="preserve">
<g>
	<path style="fill:#010002;" d="M260.116,200.968l-152.065-0.859c-9.013-0.049-15.322,4.308-14.093,9.736
		c1.229,5.423,9.524,9.823,18.536,9.823h140.099c15.703,0,15.703,35.811,0,35.811c0,0-4.52,0.076-10.089,0.169
		c-5.57,0.098-4.476,1.512-0.528,6.674c2.317,3.013,3.682,6.777,3.682,10.96c0,10.416-8.447,18.879-18.879,18.879
		c-10.416,0-18.302-8.463-18.302-18.879c0-3.873,1.099-7.522,3.008-10.546c3.274-5.194,1.071-6.984-7.941-6.946l-64.045,0.256
		c-9.013,0.038-11.009,1.605-7.354,6.663c2.143,2.948,3.399,6.581,3.399,10.579c0,10.416-8.425,18.879-18.857,18.879
		c-10.47,0-18.297-8.463-18.297-18.879c0-4.09,1.207-7.789,3.302-10.769c3.639-5.173,3.182-6.723-4.096-6.831l-13.173-0.196
		c-6.092,0-20.168-16.382-20.168-29.393c0-3.954-13.859-128.623-18.906-173.892c-1.001-8.953-9.116-16.334-18.128-16.469
		l-3.737-0.065c-9.013-0.136-16.888-7.87-13.527-16.236C17.49,0.664,37.68,0,37.68,0C57.293,0,67.1,8.931,71.99,17.492
		c4.465,7.821,5.194,16.246,5.629,17.226s8.088,1.762,17.106,1.746l151.331-0.261c37.731,0,36.942,38.519,36.942,38.519
		l-0.114,104.522C282.879,200.576,260.116,200.968,260.116,200.968z M117.656,72.97c-10.144,0-18.379,8.213-18.379,18.357
		s8.235,18.351,18.379,18.351c10.122,0,18.351-8.208,18.351-18.351S127.778,72.97,117.656,72.97z M117.656,128.036
		c-10.144,0-18.379,8.229-18.379,18.373c0,10.122,8.235,18.351,18.379,18.351c10.122,0,18.351-8.229,18.351-18.351
		C136.007,136.259,127.778,128.036,117.656,128.036z M172.716,72.97c-10.144,0-18.357,8.213-18.357,18.357
		s8.213,18.351,18.357,18.351s18.357-8.208,18.357-18.351S182.86,72.97,172.716,72.97z M172.716,128.036
		c-10.144,0-18.357,8.229-18.357,18.373c0,10.122,8.213,18.351,18.357,18.351s18.357-8.229,18.357-18.351
		C191.073,136.259,182.86,128.036,172.716,128.036z M227.797,72.97c-10.122,0-18.373,8.213-18.373,18.357
		s8.251,18.351,18.373,18.351c10.128,0,18.357-8.208,18.357-18.351S237.925,72.97,227.797,72.97z M227.797,128.036
		c-10.122,0-18.373,8.229-18.373,18.373c0,10.122,8.251,18.351,18.373,18.351c10.128,0,18.357-8.229,18.357-18.351
		C246.154,136.259,237.925,128.036,227.797,128.036z"/>
</g>
</svg>